<svg xmlns="http://www.w3.org/2000/svg" xmlns:xlink="http://www.w3.org/1999/xlink" width="500" zoomAndPan="magnify" viewBox="0 0 375 374.999991" height="500" preserveAspectRatio="xMidYMid meet" version="1.0"><defs><clipPath id="25886eb0ad"><path d="M 245 20.546875 L 367 20.546875 L 367 142 L 245 142 Z M 245 20.546875 " clip-rule="nonzero"/></clipPath><clipPath id="7e008f83da"><path d="M 156 312 L 239 312 L 239 354.296875 L 156 354.296875 Z M 156 312 " clip-rule="nonzero"/></clipPath><clipPath id="94efd59b72"><path d="M 15 364.234375 L 31 364.234375 L 31 375 L 15 375 Z M 15 364.234375 " clip-rule="nonzero"/></clipPath></defs><g clip-path="url(#25886eb0ad)"><path fill="#000000" d="M 353.082031 58.878906 L 328.15625 58.878906 L 328.15625 33.960938 C 328.15625 26.570312 322.128906 20.546875 314.734375 20.546875 L 300.214844 20.546875 C 293.09375 20.546875 287.066406 26.570312 287.066406 33.960938 L 287.066406 58.878906 L 259.402344 58.878906 C 252.007812 58.878906 245.980469 64.902344 245.980469 72.292969 L 245.980469 89.542969 C 245.980469 96.933594 252.007812 102.957031 259.402344 102.957031 L 287.066406 102.957031 L 287.066406 127.871094 C 287.066406 135.265625 293.09375 141.289062 300.488281 141.289062 L 315.007812 141.289062 C 322.402344 141.289062 328.429688 135.265625 328.429688 127.871094 L 328.429688 102.683594 L 353.355469 102.683594 C 360.75 102.683594 366.777344 96.660156 366.777344 89.269531 L 366.777344 72.019531 C 366.503906 64.902344 360.476562 58.878906 353.082031 58.878906 Z M 353.082031 58.878906 " fill-opacity="1" fill-rule="nonzero"/></g><path fill="#000000" d="M 49.859375 245.328125 C 52.050781 233.007812 57.800781 219.042969 69.855469 205.355469 C 92.316406 180.167969 121.347656 179.070312 141.070312 184 C 144.632812 180.714844 149.015625 178.523438 153.398438 177.429688 C 154.21875 177.15625 155.042969 177.15625 155.863281 176.882812 C 172.023438 175.511719 182.707031 185.914062 187.910156 198.785156 C 190.925781 200.699219 194.484375 203.164062 197.773438 206.722656 C 212.835938 197.414062 238.859375 184.820312 265.976562 188.925781 C 307.613281 195.5 318.566406 229.449219 319.9375 234.652344 C 321.582031 240.398438 322.675781 249.160156 321.308594 258.46875 C 355.273438 221.507812 361.023438 194.949219 361.847656 190.296875 C 363.765625 185.09375 374.996094 148.132812 352.261719 113.636719 L 339.113281 113.636719 L 339.113281 127.597656 C 339.113281 141.015625 328.15625 151.964844 314.734375 151.964844 L 300.214844 151.964844 C 287.066406 151.964844 276.113281 141.015625 276.113281 127.597656 L 276.113281 113.636719 L 259.402344 113.636719 C 245.980469 113.636719 235.023438 102.683594 235.023438 89.269531 L 235.023438 75.304688 C 213.933594 81.601562 197.496094 91.730469 191.199219 96.113281 C 177.226562 86.804688 114.777344 49.019531 59.445312 85.160156 C 0.00390625 124.039062 18.082031 183.453125 20.550781 190.296875 C 21.097656 194.402344 25.753906 215.210938 49.859375 245.328125 Z M 49.859375 245.328125 " fill-opacity="1" fill-rule="nonzero"/><g clip-path="url(#7e008f83da)"><path fill="#000000" d="M 225.4375 312.953125 C 213.109375 320.621094 200.785156 323.359375 190.648438 323.359375 C 181.609375 329.109375 171.75 330.75 164.082031 330.476562 C 161.613281 331.574219 159.148438 332.394531 156.410156 332.941406 L 187.363281 353.476562 C 188.183594 354.023438 189.28125 354.296875 190.375 354.296875 C 190.648438 354.296875 190.648438 354.296875 190.925781 354.296875 C 191.199219 354.296875 191.199219 354.296875 191.472656 354.296875 C 192.566406 354.296875 193.664062 354.023438 194.484375 353.476562 L 238.859375 323.90625 C 233.378906 321.441406 229 317.335938 225.4375 312.953125 Z M 225.4375 312.953125 " fill-opacity="1" fill-rule="nonzero"/></g><path fill="#000000" d="M 116.691406 250.257812 C 115.871094 249.160156 108.75 240.949219 100.257812 240.949219 C 97.246094 240.949219 92.863281 242.042969 89.027344 247.246094 C 84.097656 253.816406 87.65625 261.753906 92.863281 266.136719 C 95.054688 268.054688 98.613281 267.777344 100.53125 265.589844 C 102.449219 263.398438 102.175781 259.839844 99.984375 257.921875 C 99.984375 257.921875 96.972656 254.910156 97.792969 253.542969 C 99.164062 251.898438 99.984375 251.625 100.257812 251.625 C 102.449219 251.625 106.011719 254.636719 107.925781 256.554688 C 109.023438 258.195312 111.214844 262.578125 110.117188 266.136719 C 109.296875 268.875 106.558594 271.339844 102.449219 273.253906 C 98.886719 274.898438 95.601562 274.898438 92.863281 273.527344 C 86.835938 270.789062 83.273438 262.304688 82.179688 259.292969 C 81.359375 256.28125 78.34375 254.910156 75.332031 255.734375 C 72.320312 256.554688 70.949219 259.566406 71.769531 262.578125 C 72.320312 264.21875 76.976562 278.183594 88.207031 283.386719 C 90.945312 284.753906 93.957031 285.300781 96.972656 285.300781 C 100.257812 285.300781 103.546875 284.480469 106.832031 283.113281 C 114.5 279.824219 119.160156 275.171875 120.800781 268.875 C 123.265625 260.113281 117.515625 251.351562 116.691406 250.257812 Z M 116.691406 250.257812 " fill-opacity="1" fill-rule="nonzero"/><path fill="#000000" d="M 259.675781 317.609375 C 278.851562 317.609375 292 312.40625 298.296875 309.394531 C 300.214844 311.039062 303.230469 312.679688 306.515625 312.953125 C 309.527344 313.226562 313.636719 312.132812 318.019531 307.203125 C 326.238281 297.621094 322.402344 286.671875 319.390625 282.289062 C 319.117188 282.015625 319.117188 281.742188 318.84375 281.742188 C 316.101562 278.730469 311.171875 275.171875 304.597656 273.253906 C 315.007812 257.648438 310.078125 238.484375 309.804688 237.664062 C 309.527344 236.292969 301.585938 205.355469 264.605469 199.605469 C 235.023438 194.949219 205.988281 213.570312 196.128906 220.960938 C 189.828125 211.925781 183.253906 207.820312 179.144531 206.175781 C 176.953125 197.960938 170.378906 186.464844 157.230469 187.832031 C 156.957031 187.832031 156.683594 187.832031 156.410156 188.105469 C 153.125 188.929688 147.917969 191.664062 145.179688 196.867188 C 132.578125 192.488281 102.175781 186.191406 78.34375 213.019531 C 47.941406 246.972656 64.101562 282.015625 64.648438 283.113281 C 65.195312 284.480469 81.90625 321.714844 119.980469 323.632812 C 121.625 323.90625 127.375 324.453125 134.222656 324.453125 C 143.261719 324.453125 154.492188 323.359375 162.4375 319.527344 C 167.09375 320.074219 177.777344 320.074219 187.636719 312.40625 C 188.734375 312.40625 189.554688 312.40625 190.648438 312.40625 C 199.964844 312.40625 213.386719 309.941406 227.082031 298.445312 C 227.628906 297.894531 228.449219 297.347656 229 296.800781 C 232.011719 306.382812 240.777344 317.609375 259.675781 317.609375 C 259.402344 317.609375 259.675781 317.609375 259.675781 317.609375 Z M 162.164062 308.300781 C 160.792969 308.027344 159.421875 308.300781 158.054688 309.121094 C 149.289062 314.597656 128.199219 313.777344 120.800781 312.679688 C 120.800781 312.679688 120.527344 312.679688 120.527344 312.679688 C 89.300781 311.3125 74.511719 278.730469 74.511719 278.183594 C 73.960938 277.089844 60.8125 248.339844 86.289062 219.867188 C 97.792969 206.996094 111.214844 203.4375 122.171875 203.4375 C 135.046875 203.4375 144.90625 208.367188 145.726562 208.640625 C 148.191406 210.007812 151.207031 208.914062 152.851562 206.722656 C 153.671875 205.902344 154.21875 204.808594 154.21875 203.4375 C 154.492188 200.152344 157.230469 198.785156 158.328125 198.511719 C 158.328125 198.511719 158.328125 198.511719 158.601562 198.511719 C 166.273438 198.511719 168.738281 211.105469 168.738281 211.105469 C 169.011719 213.296875 170.929688 215.210938 173.121094 215.484375 C 173.394531 215.484375 187.910156 219.320312 196.402344 248.066406 C 204.894531 277.363281 188.734375 294.609375 188.183594 295.160156 C 187.910156 295.433594 187.636719 295.707031 187.363281 295.980469 C 178.050781 311.3125 162.710938 308.574219 162.164062 308.300781 Z M 238.039062 288.3125 C 240.230469 262.304688 269.8125 257.375 271.179688 257.101562 C 274.195312 256.554688 276.113281 253.816406 275.835938 250.804688 C 275.289062 247.792969 272.550781 245.875 269.539062 246.148438 C 260.773438 247.519531 247.078125 252.722656 237.488281 263.398438 C 234.75 256.007812 230.09375 251.078125 229.820312 250.804688 C 227.628906 248.613281 224.339844 248.613281 222.148438 250.53125 C 219.957031 252.722656 219.683594 256.007812 221.875 258.195312 C 221.875 258.195312 229 265.863281 228.449219 275.171875 C 228.175781 280.375 225.164062 285.300781 219.957031 289.957031 C 212.015625 296.527344 204.347656 299.539062 197.773438 300.632812 C 200.511719 297.347656 205.441406 289.957031 208.179688 279.003906 C 212.289062 277.910156 214.753906 277.910156 214.753906 277.910156 C 217.769531 277.910156 220.234375 275.171875 219.957031 272.160156 C 219.683594 269.148438 217.492188 266.683594 214.207031 266.957031 C 213.933594 266.957031 212.289062 266.957031 209.550781 267.503906 C 209.824219 260.660156 209.003906 253.269531 206.8125 244.78125 C 205.167969 239.304688 203.25 234.375 201.332031 230.269531 C 209.003906 224.519531 236.394531 205.902344 262.691406 210.007812 C 292.273438 214.664062 298.574219 238.757812 298.847656 239.851562 C 298.847656 240.125 304.050781 259.566406 291.175781 271.066406 C 284.601562 271.613281 277.480469 273.527344 269.8125 278.457031 C 267.347656 280.101562 266.523438 283.386719 268.167969 286.125 C 269.8125 288.585938 273.097656 289.410156 275.835938 287.765625 C 295.285156 275.445312 308.433594 286.125 310.625 288.039062 C 311.445312 289.410156 313.910156 294.609375 309.804688 299.539062 C 308.980469 300.632812 307.886719 301.179688 307.335938 301.179688 C 306.242188 301.179688 304.597656 299.539062 304.050781 298.71875 C 303.230469 297.621094 301.859375 296.800781 300.488281 296.527344 C 299.121094 296.253906 297.476562 296.527344 296.382812 297.347656 C 296.382812 297.347656 283.507812 306.109375 259.949219 306.109375 C 240.777344 306.65625 238.585938 291.324219 238.039062 288.3125 Z M 238.039062 288.3125 " fill-opacity="1" fill-rule="nonzero"/><path fill="#000000" d="M 147.097656 233.28125 C 144.90625 235.472656 144.90625 239.03125 147.097656 240.949219 C 148.191406 242.042969 148.742188 243.410156 148.742188 244.78125 C 148.742188 246.148438 148.191406 247.519531 147.097656 248.613281 C 144.90625 250.804688 144.90625 254.089844 147.097656 256.28125 C 148.191406 257.375 149.5625 257.921875 150.933594 257.921875 C 152.300781 257.921875 153.671875 257.375 154.765625 256.28125 C 157.78125 253.269531 159.699219 249.160156 159.699219 244.78125 C 159.699219 240.398438 158.054688 236.292969 154.765625 233.28125 C 152.851562 231.089844 149.289062 231.089844 147.097656 233.28125 Z M 147.097656 233.28125 " fill-opacity="1" fill-rule="nonzero"/><path fill="#000000" d="M 147.097656 269.421875 C 144.90625 271.613281 144.90625 275.171875 147.097656 277.089844 C 148.191406 278.183594 148.742188 279.550781 148.742188 280.921875 C 148.742188 282.289062 148.191406 283.660156 147.097656 284.753906 C 144.90625 286.945312 144.90625 290.230469 147.097656 292.421875 C 148.191406 293.515625 149.5625 294.0625 150.933594 294.0625 C 152.300781 294.0625 153.671875 293.515625 154.765625 292.421875 C 157.78125 289.410156 159.699219 285.300781 159.699219 280.921875 C 159.699219 276.539062 158.054688 272.433594 154.765625 269.421875 C 152.851562 267.230469 149.289062 267.230469 147.097656 269.421875 Z M 147.097656 269.421875 " fill-opacity="1" fill-rule="nonzero"/><path fill="#000000" d="M 190.375 263.398438 C 190.375 257.921875 188.183594 252.722656 184.351562 248.886719 C 182.160156 246.699219 178.597656 246.699219 176.679688 248.886719 C 174.488281 251.078125 174.488281 254.636719 176.679688 256.554688 C 178.597656 258.46875 179.695312 260.933594 179.695312 263.398438 C 179.695312 265.863281 178.597656 268.328125 176.679688 270.242188 C 174.488281 272.433594 174.488281 275.71875 176.679688 277.910156 C 177.777344 279.003906 179.144531 279.550781 180.515625 279.550781 C 181.882812 279.550781 183.253906 279.003906 184.351562 277.910156 C 188.183594 274.078125 190.375 268.875 190.375 263.398438 Z M 190.375 263.398438 " fill-opacity="1" fill-rule="nonzero"/><g clip-path="url(#94efd59b72)"><path fill="#ffffff" d="M 29.257812 369.039062 L 26.136719 369.039062 L 26.136719 365.917969 C 26.136719 364.988281 25.382812 364.234375 24.453125 364.234375 L 22.636719 364.234375 C 21.742188 364.234375 20.988281 364.988281 20.988281 365.917969 L 20.988281 369.039062 L 17.523438 369.039062 C 16.597656 369.039062 15.84375 369.792969 15.84375 370.71875 L 15.84375 372.878906 C 15.84375 373.808594 16.597656 374.5625 17.523438 374.5625 L 20.988281 374.5625 L 20.988281 377.683594 C 20.988281 378.609375 21.742188 379.363281 22.671875 379.363281 L 24.488281 379.363281 C 25.414062 379.363281 26.171875 378.609375 26.171875 377.683594 L 26.171875 374.527344 L 29.292969 374.527344 C 30.21875 374.527344 30.972656 373.773438 30.972656 372.847656 L 30.972656 370.683594 C 30.9375 369.792969 30.183594 369.039062 29.257812 369.039062 Z M 29.257812 369.039062 " fill-opacity="1" fill-rule="nonzero"/></g><path fill="#ffffff" d="M -8.722656 392.402344 C -8.449219 390.859375 -7.726562 389.109375 -6.21875 387.394531 C -3.402344 384.238281 0.234375 384.101562 2.703125 384.71875 C 3.148438 384.304688 3.699219 384.03125 4.246094 383.894531 C 4.347656 383.859375 4.453125 383.859375 4.554688 383.824219 C 6.578125 383.652344 7.917969 384.957031 8.570312 386.570312 C 8.945312 386.808594 9.394531 387.117188 9.804688 387.566406 C 11.691406 386.398438 14.949219 384.820312 18.347656 385.335938 C 23.5625 386.160156 24.933594 390.414062 25.105469 391.0625 C 25.3125 391.785156 25.449219 392.882812 25.277344 394.050781 C 29.53125 389.417969 30.253906 386.089844 30.355469 385.507812 C 30.597656 384.855469 32.003906 380.222656 29.15625 375.898438 L 27.507812 375.898438 L 27.507812 377.648438 C 27.507812 379.332031 26.136719 380.703125 24.453125 380.703125 L 22.636719 380.703125 C 20.988281 380.703125 19.617188 379.332031 19.617188 377.648438 L 19.617188 375.898438 L 17.523438 375.898438 C 15.84375 375.898438 14.46875 374.527344 14.46875 372.847656 L 14.46875 371.097656 C 11.828125 371.886719 9.769531 373.15625 8.980469 373.703125 C 7.230469 372.539062 -0.589844 367.804688 -7.519531 372.332031 C -14.964844 377.203125 -12.703125 384.648438 -12.394531 385.507812 C -12.324219 386.019531 -11.742188 388.628906 -8.722656 392.402344 Z M -8.722656 392.402344 " fill-opacity="1" fill-rule="nonzero"/></svg>