<svg xmlns="http://www.w3.org/2000/svg" xmlns:xlink="http://www.w3.org/1999/xlink" width="500" zoomAndPan="magnify" viewBox="0 0 375 374.999991" height="500" preserveAspectRatio="xMidYMid meet" version="1.0"><defs><clipPath id="6bed56f516"><path d="M 0 1.683594 L 375 1.683594 L 375 375 L 0 375 Z M 0 1.683594 " clip-rule="nonzero"/></clipPath><clipPath id="b32f816e95"><path d="M 187.5 1.683594 C 83.945312 1.683594 0 85.632812 0 189.183594 C 0 292.738281 83.945312 376.683594 187.5 376.683594 C 291.054688 376.683594 375 292.738281 375 189.183594 C 375 85.632812 291.054688 1.683594 187.5 1.683594 Z M 187.5 1.683594 " clip-rule="nonzero"/></clipPath><clipPath id="643257a01d"><path d="M 91.28125 40.871094 L 227 40.871094 L 227 215 L 91.28125 215 Z M 91.28125 40.871094 " clip-rule="nonzero"/></clipPath><clipPath id="57cc30d2d2"><path d="M 178 183 L 283.269531 183 L 283.269531 289 L 178 289 Z M 178 183 " clip-rule="nonzero"/></clipPath><clipPath id="167fa65c20"><path d="M 91.835938 207 L 221 207 L 221 337.308594 L 91.835938 337.308594 Z M 91.835938 207 " clip-rule="nonzero"/></clipPath></defs><g clip-path="url(#6bed56f516)"><g clip-path="url(#b32f816e95)"><path fill="#ffffff" d="M 0 1.683594 L 375 1.683594 L 375 376.683594 L 0 376.683594 Z M 0 1.683594 " fill-opacity="1" fill-rule="nonzero"/></g></g><g clip-path="url(#643257a01d)"><path fill="#000000" d="M 159.414062 53.226562 C 189.925781 53.226562 214.757812 78.160156 214.757812 108.808594 C 214.757812 124.085938 208.65625 140.964844 198.769531 154.058594 C 182.40625 180.621094 159.625 186.996094 141.574219 186.996094 C 125.167969 186.996094 112.660156 181.75 112.402344 181.628906 C 109.269531 180.273438 107.839844 176.644531 109.195312 173.507812 C 110.535156 170.390625 114.183594 168.929688 117.300781 170.300781 C 118.339844 170.738281 131.179688 176.023438 146.804688 174.59375 C 122.257812 166.308594 104.070312 135.207031 104.070312 108.808594 C 104.070312 78.160156 128.902344 53.226562 159.414062 53.226562 Z M 171.03125 212.21875 C 180.011719 189.375 201.5 172.890625 226.992188 171.277344 L 226.992188 107.890625 C 226.992188 70.929688 196.933594 40.871094 159.972656 40.871094 L 158.855469 40.871094 C 121.894531 40.871094 91.835938 70.929688 91.835938 107.890625 L 91.835938 190.625 C 97.09375 197.164062 121.414062 222.886719 171.03125 212.21875 " fill-opacity="1" fill-rule="nonzero"/></g><g clip-path="url(#57cc30d2d2)"><path fill="#000000" d="M 243.371094 230.976562 C 241.683594 232.316406 240.355469 233.839844 239.347656 235.480469 C 239.089844 235.886719 238.867188 236.296875 238.65625 236.71875 C 237.734375 238.585938 237.238281 240.574219 237.238281 242.609375 C 237.238281 245.277344 235.535156 247.566406 233.171875 248.441406 C 232.507812 248.679688 231.8125 248.832031 231.058594 248.832031 C 229.492188 248.832031 228.09375 248.242188 226.992188 247.292969 C 225.710938 246.179688 224.898438 244.550781 224.898438 242.714844 C 224.898438 242.007812 224.957031 241.3125 225.019531 240.621094 C 225.246094 237.878906 225.921875 235.195312 226.992188 232.664062 C 228.410156 229.335938 230.457031 226.230469 233.171875 223.546875 C 233.9375 222.78125 234.765625 222.042969 235.625 221.332031 C 237.917969 219.511719 238.867188 216.664062 238.203125 213.710938 C 237.628906 211.191406 235.625 209.144531 233.171875 208.449219 C 233.066406 208.421875 232.972656 208.359375 232.867188 208.328125 C 230.742188 207.847656 228.695312 208.269531 226.992188 209.414062 C 226.839844 209.519531 226.675781 209.59375 226.523438 209.714844 C 224.746094 211.132812 223.722656 213.257812 223.722656 215.53125 C 223.722656 218.9375 220.949219 221.710938 217.546875 221.710938 C 214.140625 221.710938 211.367188 218.9375 211.367188 215.53125 C 211.367188 214.296875 211.519531 213.089844 211.730469 211.902344 C 212.585938 207.261719 215.058594 203.054688 218.824219 200.058594 C 221.25 198.128906 224.039062 196.847656 226.992188 196.214844 C 228.199219 195.960938 229.433594 195.839844 230.667969 195.808594 C 231.496094 195.792969 232.339844 195.808594 233.171875 195.898438 C 233.984375 195.988281 234.8125 196.109375 235.625 196.304688 C 236.9375 196.59375 238.15625 197.074219 239.347656 197.617188 C 244.773438 200.117188 248.886719 205.015625 250.242188 210.96875 C 251.960938 218.515625 249.324219 226.183594 243.371094 230.976562 Z M 235.414062 274.25 C 234.722656 274.957031 233.863281 275.457031 232.945312 275.742188 C 232.339844 275.9375 231.707031 276.074219 231.058594 276.074219 C 229.492188 276.074219 228.015625 275.457031 226.855469 274.371094 C 226.8125 274.324219 226.75 274.296875 226.707031 274.25 C 225.546875 273.074219 224.882812 271.523438 224.882812 269.894531 C 224.882812 269.488281 224.914062 269.097656 225.019531 268.691406 C 225.078125 268.285156 225.199219 267.890625 225.351562 267.515625 C 225.5 267.152344 225.695312 266.777344 225.9375 266.460938 C 226.164062 266.128906 226.40625 265.8125 226.707031 265.511719 C 226.796875 265.421875 226.902344 265.34375 226.992188 265.269531 C 227.203125 265.089844 227.398438 264.910156 227.640625 264.742188 C 227.972656 264.515625 228.316406 264.335938 228.726562 264.183594 C 229.085938 264.019531 229.464844 263.898438 229.855469 263.839844 C 230.984375 263.597656 232.117188 263.734375 233.171875 264.125 C 234 264.425781 234.78125 264.878906 235.414062 265.511719 C 235.730469 265.8125 235.972656 266.128906 236.183594 266.460938 C 236.410156 266.777344 236.621094 267.152344 236.769531 267.515625 C 236.9375 267.890625 237.058594 268.285156 237.117188 268.691406 C 237.207031 269.097656 237.238281 269.488281 237.238281 269.894531 C 237.238281 271.523438 236.589844 273.074219 235.414062 274.25 Z M 239.347656 184.148438 C 238.878906 184.070312 238.429688 183.996094 237.960938 183.9375 C 236.394531 183.726562 234.78125 183.605469 233.171875 183.527344 C 232.460938 183.5 231.785156 183.421875 231.058594 183.421875 C 229.6875 183.421875 228.347656 183.527344 226.992188 183.632812 C 226.058594 183.710938 225.125 183.816406 224.191406 183.9375 C 207.707031 186.136719 193.632812 196.066406 185.722656 210.003906 C 183.492188 213.921875 181.789062 218.140625 180.613281 222.597656 C 179.5 226.863281 178.851562 231.308594 178.851562 235.917969 C 178.851562 245.863281 181.667969 255.128906 186.460938 263.070312 C 188.886719 267.078125 191.808594 270.738281 195.183594 273.949219 C 203.082031 281.484375 213.28125 286.546875 224.613281 287.960938 C 226.675781 288.21875 228.769531 288.398438 230.910156 288.398438 C 230.953125 288.398438 231.015625 288.414062 231.058594 288.414062 C 233.183594 288.414062 235.265625 288.25 237.328125 287.992188 C 263.167969 284.871094 283.285156 262.722656 283.285156 235.917969 C 283.285156 209.804688 264.210938 188.15625 239.347656 184.148438 " fill-opacity="1" fill-rule="nonzero"/></g><g clip-path="url(#167fa65c20)"><path fill="#000000" d="M 180.902344 276.644531 C 175.65625 277.265625 170.414062 277.535156 165.277344 277.535156 C 136.105469 277.535156 110.28125 268.960938 108.261719 268.269531 C 105.019531 267.167969 103.304688 263.65625 104.402344 260.433594 C 105.488281 257.210938 109 255.476562 112.238281 256.578125 C 112.734375 256.742188 142.78125 266.6875 173.320312 264.742188 C 168.996094 256.046875 166.496094 246.285156 166.496094 235.917969 C 166.496094 232.363281 166.859375 228.898438 167.414062 225.492188 C 160.484375 226.652344 153.976562 227.195312 147.933594 227.195312 C 120.691406 227.195312 102.429688 216.738281 91.835938 207.9375 L 91.835938 270.289062 C 91.835938 274.535156 92.257812 278.710938 93.011719 282.75 C 101.496094 288.925781 144.722656 317.976562 189.277344 302.515625 C 192.488281 301.402344 196.011719 303.105469 197.128906 306.328125 C 198.257812 309.554688 196.539062 313.0625 193.316406 314.195312 C 182.574219 317.914062 171.980469 319.4375 161.886719 319.4375 C 136.316406 319.4375 113.894531 309.734375 99.6875 301.703125 C 110.957031 322.859375 133.257812 337.308594 158.855469 337.308594 L 159.972656 337.308594 C 186.355469 337.308594 209.210938 321.96875 220.152344 299.757812 C 204.390625 297.046875 190.558594 288.625 180.902344 276.644531 " fill-opacity="1" fill-rule="nonzero"/></g><path fill="#000000" d="M 136.601562 91.691406 C 138.894531 89.417969 143.035156 89.417969 145.339844 91.691406 C 146.488281 92.835938 147.132812 94.449219 147.132812 96.078125 C 147.132812 96.484375 147.105469 96.890625 147.042969 97.28125 C 146.953125 97.6875 146.832031 98.050781 146.683594 98.425781 C 146.515625 98.804688 146.335938 99.164062 146.125 99.480469 C 145.898438 99.8125 145.628906 100.128906 145.339844 100.429688 C 144.179688 101.605469 142.628906 102.226562 140.957031 102.226562 C 140.160156 102.226562 139.359375 102.074219 138.605469 101.757812 C 137.867188 101.457031 137.191406 101.019531 136.601562 100.429688 C 135.441406 99.257812 134.792969 97.71875 134.792969 96.078125 C 134.792969 94.449219 135.472656 92.835938 136.601562 91.691406 Z M 159.414062 127.3125 C 164.160156 127.3125 168.605469 129.148438 171.605469 132.359375 C 173.941406 134.859375 173.804688 138.761719 171.316406 141.097656 C 168.816406 143.417969 164.914062 143.296875 162.578125 140.796875 C 162.097656 140.269531 160.980469 139.667969 159.414062 139.667969 C 157.863281 139.667969 156.734375 140.269531 156.25 140.796875 C 155.03125 142.09375 153.386719 142.757812 151.730469 142.757812 C 150.222656 142.757812 148.714844 142.214844 147.511719 141.097656 C 145.023438 138.777344 144.890625 134.859375 147.210938 132.375 C 150.207031 129.164062 154.667969 127.3125 159.414062 127.3125 Z M 153.238281 107.257812 C 153.238281 103.851562 156.007812 101.078125 159.414062 101.078125 C 162.820312 101.078125 165.59375 103.851562 165.59375 107.257812 L 165.59375 113.628906 C 165.59375 117.035156 162.820312 119.808594 159.414062 119.808594 C 156.007812 119.808594 153.238281 117.035156 153.238281 113.628906 Z M 171.816406 94.839844 C 171.875 94.480469 171.996094 94.074219 172.148438 93.695312 C 172.296875 93.335938 172.492188 92.957031 172.703125 92.625 C 172.945312 92.28125 173.203125 91.980469 173.472656 91.691406 C 174.933594 90.277344 177.027344 89.628906 179.0625 90.003906 C 179.46875 90.09375 179.847656 90.214844 180.207031 90.367188 C 180.585938 90.515625 180.945312 90.714844 181.292969 90.925781 C 181.625 91.148438 181.941406 91.421875 182.210938 91.691406 C 183.355469 92.835938 184.035156 94.449219 184.035156 96.046875 C 184.035156 97.71875 183.386719 99.257812 182.210938 100.429688 C 181.625 101.019531 180.945312 101.457031 180.207031 101.757812 C 179.46875 102.074219 178.671875 102.226562 177.855469 102.226562 C 176.183594 102.226562 174.648438 101.605469 173.472656 100.429688 C 172.296875 99.257812 171.679688 97.71875 171.679688 96.046875 C 171.679688 95.65625 171.726562 95.25 171.816406 94.839844 Z M 159.414062 164.378906 C 182.167969 164.378906 202.417969 133.308594 202.417969 108.808594 C 202.417969 84.972656 183.117188 65.582031 159.414062 65.582031 C 135.714844 65.582031 116.425781 84.972656 116.425781 108.808594 C 116.425781 133.308594 136.664062 164.378906 159.414062 164.378906 " fill-opacity="1" fill-rule="nonzero"/></svg>